<?xml version="1.0" encoding="UTF-8" standalone="no"?>
<svg width="383" height="120" viewBox="0 0 383 120" xmlns="http://www.w3.org/2000/svg">
  <title>
    Shape
  </title>
  <path d="M12.26 27.9c.62-1.8 1.84-3.04 4.3-3.65C71.63 8.95 101 63.42 151.2 70.15c28.1 3.67 55.6-20.2 79.5-32.44C249 28.6 267.4 26.1 287 31c0-8.57 0-17.13 1.8-25.1.6-1.83 1.8-3.05 3.6-3.66 1.8-1.8 4.3-2.4 6.7-1.8 27.5 9.2 54.5 22.7 80.8 34.9 4.9 2.5 3 8.6-1.3 10.4.6 1.9.6 3.7-1.2 4.9-11.67 9.8-23.9 18.4-36.1 26.9-11.07 8-25.7 22.1-39.2 25.1h-1.85c-1.85 2.5-4.9 3.1-6.74 0-4.9-9.8-6.1-20.8-6.1-31.8 0-.6 0-1.2.6-2.4-12.2-7.9-42.2 14.1-50.8 19.6-22 13.5-47.7 25.1-72.8 30-22.63 4.3-47.1-3.6-66.7-14.7-28.8-15.9-47.12-50.1-85.1-39.1-3.64 1.2-6.1-1.2-7.32-3.6-1.85-.6-3.7-2.43-3.7-5.5C.9 48.4.9 41.67.3 34.92c-.63-7.33 6.7-9.2 11.6-6.72l.36-.3zm164.63 72.85c28.1-7.34 52.6-25.1 77.7-38.56 12.2-6.8 28.1-13.5 40.4-2.5 1.2 1.2 1.8 3.04 1.8 4.9 2.4.6 4.3 3.03 4.3 6.1v18.4c7.3-6.7 17.7-11.6 26.3-17.1 14.1-9.2 28.1-18.9 42.2-27.5-23.3-7.9-45.9-17.7-68.6-27.5.6 6.8.6 14.1.6 20.8 0 6.2-7.4 8-11 4.9-50.8-9.8-84.5 36.8-131.6 41.6C106.3 89.9 75.7 25 20.7 37.2c-1.9.6-3.1 0-4.3-.6 0 4.3-.6 8.6-.6 13.5 18.3-6.1 34.8 0 52.6 12.9 34.43 24.9 61.97 50.6 108.5 37.74z" fill-rule="evenodd"/>
</svg>