<?xml version="1.0" standalone="no"?>
<svg xmlns="http://www.w3.org/2000/svg" width="382.4" height="382.4" viewBox="0 0 382.399 382.399">
  <path transform="rotate(180 180 180)" d="M370.74 159.5c-.62-1.82-1.84-3.05-4.3-3.66-55.07-15.3-84.44 39.17-134.63 45.9-28.1 3.67-55.6-20.2-79.5-32.44-18.3-9.18-36.7-11.62-56.3-6.73 0-8.57 0-17.13-1.8-25.1-.6-1.83-1.8-3.05-3.6-3.66-1.8-1.8-4.3-2.4-6.7-1.8-27.5 9.2-54.5 22.7-80.8 34.9-4.9 2.5-3 8.6 1.3 10.4-.6 1.9-.6 3.7 1.2 4.9 11.66 9.8 23.9 18.4 36.1 26.9 11.06 8 25.7 22.1 39.2 25.1h1.84c1.85 2.5 4.9 3.1 6.74 0 4.9-9.8 6.15-20.8 6.15-31.8 0-.6 0-1.2-.6-2.4 12.2-7.9 42.2 14.1 50.8 19.6 22 13.5 47.7 25.1 72.8 30 22.66 4.3 47.1-3.6 66.7-14.7 28.8-15.9 47.15-50.1 85.1-39.1 3.67 1.2 6.1-1.2 7.35-3.6 1.86-.6 3.7-2.43 3.7-5.5.6-6.72.6-13.45 1.2-20.2.64-7.33-6.7-9.2-11.6-6.72zm-56.3 34.9c-34.28 25.1-61.82 50.8-108.33 37.94-28.1-7.34-52.6-25.1-77.7-38.56-12.2-6.73-28.1-13.46-40.4-2.44-1.2 1.22-1.8 3.06-1.8 4.9-2.4.6-4.3 3.05-4.3 6.1v18.37c-7.3-6.7-17.7-11.6-26.3-17.1-14.1-9.2-28.1-18.9-42.2-27.5 23.3-7.9 45.9-17.7 68.6-27.5-.6 6.8-.6 14.1-.6 20.8 0 6.2 7.4 8 11 4.9h.6c50.2-9.8 83.9 36.8 131 41.6 52.7 5.6 83.3-59.3 138.3-47.1 1.9.6 3.1 0 4.3-.6 0 4.3.6 8.6.6 13.5-18.3-6.1-34.8 0-52.6 12.9z"/>
</svg>